<svg version="1.1" id="Layer_1" xmlns="http://www.w3.org/2000/svg" xmlns:xlink="http://www.w3.org/1999/xlink" x="0px" y="0px"
	 width="100%" viewBox="0 0 1024 1024" enable-background="new 0 0 1024 1024" xml:space="preserve">
<path fill="#000000" opacity="1.000000" stroke="none" 
	d="
M592.511597,685.469482 
	C550.695129,635.047241 509.109436,584.895081 467.544434,534.725830 
	C467.260040,534.382568 467.260162,533.803650 467.110443,533.274780 
	C469.064056,531.332886 471.517609,532.015259 473.737366,532.010742 
	C496.402527,531.964722 519.069275,532.155029 541.732666,531.953247 
	C561.615784,531.776245 579.489685,525.974060 593.808960,511.529999 
	C603.253479,502.003265 608.624146,490.284454 611.037109,477.218994 
	C614.273743,459.693878 613.558777,442.403290 606.720215,425.735901 
	C597.164673,402.446472 579.018005,390.327179 554.763428,386.318573 
	C548.824829,385.337097 542.843384,385.114990 536.844543,385.116272 
	C498.513489,385.124512 460.182465,385.131622 421.851410,385.158722 
	C414.355347,385.164001 414.351959,385.203583 414.352661,392.626984 
	C414.356293,430.958038 414.395416,469.289185 414.310516,507.620056 
	C414.302704,511.145660 415.139008,513.885437 417.515930,516.635864 
	C467.520325,574.496948 517.428040,632.441528 567.357788,690.367126 
	C571.342407,694.989929 575.600586,699.398926 578.732239,704.486694 
	C577.975586,705.943970 576.930054,705.854675 575.942749,705.795227 
	C562.288330,704.974304 548.621094,705.443909 534.962646,705.531006 
	C531.605103,705.552429 529.387451,704.525635 527.234802,702.080566 
	C500.588226,671.814209 473.926453,641.560669 447.148987,611.410156 
	C415.945404,576.275879 384.683472,541.192749 353.277557,506.239594 
	C349.366180,501.886505 347.505219,497.599762 347.530273,491.598267 
	C347.758606,436.935760 347.662079,382.271881 347.661255,327.608429 
	C347.661163,320.650085 347.663086,320.628571 354.388397,320.629730 
	C417.884613,320.640717 481.390961,319.958893 544.874268,320.872833 
	C608.571655,321.789856 665.356689,362.152374 675.967346,432.944458 
	C680.804382,465.215759 677.391418,496.781555 662.514160,526.358032 
	C648.451538,554.315002 626.094055,573.531006 597.839417,586.280212 
	C591.271545,589.243835 591.272583,589.293030 595.531982,594.887085 
	C621.878784,629.489502 648.228271,664.089783 674.548401,698.712463 
	C676.011414,700.636902 677.776611,702.434204 678.473022,704.740112 
	C677.959534,705.216431 677.719116,705.631226 677.488953,705.625671 
	C656.667664,705.122009 635.847534,705.286682 615.035950,705.962585 
	C610.969971,706.094666 608.158508,704.887573 605.695251,701.615967 
	C601.590210,696.163696 597.081848,691.015259 592.511597,685.469482 
z"/>
<path fill="#000000" opacity="1.000000" stroke="none" 
	d="
M347.664062,636.999878 
	C347.663696,604.569275 347.663696,572.638672 347.663696,540.853577 
	C350.201385,540.125977 350.902222,541.732544 351.841705,542.769775 
	C371.856659,564.867188 391.839020,586.994263 411.871979,609.075317 
	C413.539368,610.913086 414.347504,612.842712 414.344116,615.348938 
	C414.305573,643.836853 414.276611,672.325134 414.419067,700.812439 
	C414.439270,704.851929 412.832336,705.984131 409.095703,705.961914 
	C390.437561,705.850830 371.777740,705.801453 353.120300,705.952148 
	C348.629669,705.988342 347.555054,704.168335 347.590149,699.973328 
	C347.764496,679.150085 347.666534,658.324646 347.664062,636.999878 
z"/>
<path fill="#000000" opacity="1.000000" stroke="none" 
	d="
M498.993164,481.097687 
	C505.491425,462.331238 512.005554,443.984894 518.116516,425.505249 
	C519.746216,420.576965 521.798950,417.523224 527.488464,418.529785 
	C529.558533,418.896027 531.759766,417.711121 533.676819,418.684326 
	C534.769226,420.199127 534.061768,421.424408 533.637024,422.658691 
	C524.920654,447.988708 516.131042,473.293976 507.564331,498.674500 
	C506.320099,502.360657 504.400879,503.783875 500.679688,503.350311 
	C498.068542,503.046082 495.368164,503.751740 492.200867,502.560181 
	C493.608307,495.276367 496.752167,488.519928 498.993164,481.097687 
z"/>
<path fill="#000000" opacity="1.000000" stroke="none" 
	d="
M458.524384,445.454529 
	C467.030304,441.356537 475.198151,437.423889 483.408173,433.470917 
	C486.959320,442.604218 485.479034,446.634796 477.740784,450.360138 
	C471.193207,453.512268 464.635742,456.643890 457.583832,460.023621 
	C460.463837,463.125061 463.886658,464.055542 466.898102,465.594116 
	C470.449677,467.408630 474.124695,468.979675 477.714264,470.722076 
	C485.742188,474.618927 487.019012,477.818481 484.170685,487.127625 
	C481.242004,487.212067 478.933838,485.364014 476.467010,484.218140 
	C465.457916,479.104309 454.584198,473.696442 443.534698,468.673889 
	C440.330017,467.217224 439.495636,465.107941 439.782715,461.998199 
	C440.099792,458.562988 438.513092,454.614258 443.304291,452.645905 
	C448.371857,450.564026 453.234283,447.982910 458.524384,445.454529 
z"/>
<path fill="#000000" opacity="1.000000" stroke="none" 
	d="
M586.434753,461.795746 
	C587.137207,465.737274 585.396729,467.592621 582.276062,469.036682 
	C570.211487,474.619476 558.240723,480.404816 546.222290,486.087891 
	C545.058533,486.638214 543.925415,487.541229 542.212036,486.818176 
	C541.194397,483.246185 541.660217,479.449371 541.843323,475.697571 
	C541.952332,473.464539 544.062744,472.986938 545.672546,472.229187 
	C551.837219,469.327606 558.031006,466.487793 564.207520,463.611481 
	C565.842773,462.849945 567.605286,462.266052 568.966370,460.466461 
	C566.115173,457.683502 562.270630,456.968964 559.015503,455.230316 
	C556.089355,453.667358 552.981323,452.446808 549.966003,451.048340 
	C540.805664,446.799774 539.813721,444.561432 542.568909,434.353271 
	C544.770386,433.523743 546.354980,435.117767 548.069519,435.929749 
	C558.884399,441.051422 569.528442,446.559570 580.502502,451.307770 
	C585.447632,453.447479 587.776672,456.082245 586.434753,461.795746 
z"/>
</svg>