<svg xmlns="http://www.w3.org/2000/svg" version="1.1" xmlns:xlink="http://www.w3.org/1999/xlink" xmlns:svgjs="http://svgjs.dev/svgjs" width="1440" height="560" preserveAspectRatio="none" viewBox="0 0 1440 560"><g mask="url(&quot;#SvgjsMask1006&quot;)" fill="none"><rect width="1440" height="560" x="0" y="0" fill="url(&quot;#SvgjsRadialGradient1007&quot;)"></rect><path d="M350.1 466.95L381.53 466.95L381.53 498.38L350.1 498.38z" fill="#037b0b"></path><path d="M1002 489.56a16.95 16.95 0 1 0-31.58-12.33z" fill="#d3b714"></path><path d="M484.63 590.49a36.78 36.78 0 1 0-5.57-73.35z" fill="#d3b714"></path><path d="M113.9 248.21L120.9 248.21L120.9 255.21L113.9 255.21z" stroke="#d3b714"></path><path d="M472.9 531.94 a55.17 55.17 0 1 0 110.34 0 a55.17 55.17 0 1 0 -110.34 0z" fill="#e73635"></path><path d="M275.21 274.1 a29.69 29.69 0 1 0 59.38 0 a29.69 29.69 0 1 0 -59.38 0z" stroke="#d3b714"></path><path d="M752.41 11.68L782.28 11.68L782.28 41.55L752.41 41.55z" fill="#d3b714"></path><path d="M943.08 344.92L943.14 344.92L943.14 393.41L943.08 393.41z" stroke="#d3b714"></path><path d="M1244.99 34.7L1284.46 34.7L1284.46 74.17L1244.99 74.17z" stroke="#d3b714"></path><path d="M528.94 206.28L554 206.28L554 217.71L528.94 217.71z" fill="#037b0b"></path><path d="M944.98 355.68 a11.2 11.2 0 1 0 22.4 0 a11.2 11.2 0 1 0 -22.4 0z" stroke="#d3b714"></path><path d="M916.88 523.17L970.42 523.17L970.42 552.65L916.88 552.65z" stroke="#e73635"></path><path d="M774.53 393.04L813.29 393.04L813.29 393.73L774.53 393.73z" fill="#037b0b"></path><path d="M451.58 217.79 a29.83 29.83 0 1 0 59.66 0 a29.83 29.83 0 1 0 -59.66 0z" fill="#037b0b"></path><path d="M1063.06 369.26L1083.67 369.26L1083.67 396.38L1063.06 396.38z" stroke="#e73635"></path><path d="M1016.35 115.96a51.28 51.28 0 1 0 26.9 98.97z" fill="#e73635"></path><path d="M598.54 163.49 a37.82 37.82 0 1 0 75.64 0 a37.82 37.82 0 1 0 -75.64 0z" stroke="#037b0b"></path><path d="M970.01 402.91a34.77 34.77 0 1 0-52.3 45.84z" fill="#037b0b"></path><path d="M1107.96 457.93a53.69 53.69 0 1 0 94.26-51.45z" stroke="#037b0b"></path><path d="M1362.06 244.27 a50.89 50.89 0 1 0 101.78 0 a50.89 50.89 0 1 0 -101.78 0z" fill="#e73635"></path><path d="M1254.07 255.84L1280.9 255.84L1280.9 283.51L1254.07 283.51z" stroke="#d3b714"></path><path d="M960.58 18.01L991.72 18.01L991.72 43.04L960.58 43.04z" fill="#e73635"></path><path d="M401 153.33L441.08 153.33L441.08 187.84L401 187.84z" stroke="#e73635"></path><path d="M323.63 122.58 a52.27 52.27 0 1 0 104.54 0 a52.27 52.27 0 1 0 -104.54 0z" stroke="#e73635"></path><path d="M967.4 366.98a15.3 15.3 0 1 0-30.41 3.46z" stroke="#e73635"></path><path d="M1051.17 141.78L1064.65 141.78L1064.65 171.25L1051.17 171.25z" fill="#037b0b"></path><path d="M783.04 92.38L797.04 92.38L797.04 119.68L783.04 119.68z" stroke="#d3b714"></path><path d="M311.81-7.09a32.46 32.46 0 1 0-21.25 61.35z" stroke="#037b0b"></path><path d="M158.83 228.69a3.47 3.47 0 1 0-1.34-6.81z" fill="#037b0b"></path><path d="M1051.54 180.91 a44.2 44.2 0 1 0 88.4 0 a44.2 44.2 0 1 0 -88.4 0z" stroke="#d3b714"></path><path d="M280.73 353.23 a45.36 45.36 0 1 0 90.72 0 a45.36 45.36 0 1 0 -90.72 0z" stroke="#e73635"></path><path d="M575.06 284.23a30.28 30.28 0 1 0-16.74-58.2z" stroke="#037b0b"></path><path d="M518.34 280.94L535.28 280.94L535.28 328.03L518.34 328.03z" stroke="#d3b714"></path></g><defs><mask id="SvgjsMask1006"><rect width="1440" height="560" fill="#ffffff"></rect></mask><radialGradient cx="0%" cy="0%" r="1545.06" gradientUnits="userSpaceOnUse" id="SvgjsRadialGradient1007"><stop stop-color="rgba(53, 106, 161, 1)" offset="0"></stop><stop stop-color="rgba(0, 45, 158, 0)" offset="0.83"></stop></radialGradient></defs></svg>