<svg xmlns="http://www.w3.org/2000/svg" version="1.1" xmlns:xlink="http://www.w3.org/1999/xlink" xmlns:svgjs="http://svgjs.dev/svgjs" width="1440" height="560" preserveAspectRatio="none" viewBox="0 0 1440 560"><g mask="url(&quot;#SvgjsMask2460&quot;)" fill="none"><rect width="1440" height="560" x="0" y="0" fill="url(&quot;#SvgjsLinearGradient2461&quot;)"></rect><path d="M1010.17 361.02L1044.72 361.02L1044.72 395.57L1010.17 395.57z" stroke="#037b0b"></path><path d="M1081.35 56.95L1134.07 56.95L1134.07 109.67L1081.35 109.67z" stroke="#037b0b"></path><path d="M1160.04 130.85L1191.35 130.85L1191.35 134.69L1160.04 134.69z" fill="#037b0b"></path><path d="M300.14 79.99L334.7 79.99L334.7 99.55L300.14 99.55z" fill="#e73635"></path><path d="M270.51 28.25L289.4 28.25L289.4 47.14L270.51 47.14z" stroke="#d3b714"></path><path d="M848.66 366.45a19.28 19.28 0 1 0-8.97 37.5z" stroke="#e73635"></path><path d="M1239.96 346.11 a1.19 1.19 0 1 0 2.38 0 a1.19 1.19 0 1 0 -2.38 0z" fill="#d3b714"></path><path d="M871.56 484.62L889.78 484.62L889.78 535.97L871.56 535.97z" stroke="#037b0b"></path><path d="M491.91 389.79L506.86 389.79L506.86 404.74L491.91 404.74z" fill="#d3b714"></path><path d="M651 110.55 a21.73 21.73 0 1 0 43.46 0 a21.73 21.73 0 1 0 -43.46 0z" stroke="#d3b714"></path><path d="M163.01 506.4L168.46 506.4L168.46 511.85L163.01 511.85z" fill="#037b0b"></path><path d="M1266.17 507.54L1283.23 507.54L1283.23 518.79L1266.17 518.79z" stroke="#037b0b"></path><path d="M1420.22 492.57L1448.76 492.57L1448.76 521.11L1420.22 521.11z" stroke="#037b0b"></path><path d="M166.22 360.21 a34.02 34.02 0 1 0 68.04 0 a34.02 34.02 0 1 0 -68.04 0z" fill="#d3b714"></path><path d="M1413.85 412.26L1438.47 412.26L1438.47 455.16L1413.85 455.16z" stroke="#037b0b"></path><path d="M1233.57 366.09L1273.3 366.09L1273.3 403.49L1233.57 403.49z" fill="#d3b714"></path><path d="M1302.57 110.26L1348.86 110.26L1348.86 156.55L1302.57 156.55z" fill="#d3b714"></path><path d="M1221.19 262.06L1262.21 262.06L1262.21 266.47L1221.19 266.47z" fill="#e73635"></path><path d="M1213.06 157.87L1255.1 157.87L1255.1 207.44L1213.06 207.44z" fill="#d3b714"></path><path d="M662.15 381.88L691.67 381.88L691.67 386.28L662.15 386.28z" fill="#d3b714"></path><path d="M292.62 433.99L321.17 433.99L321.17 462.54L292.62 462.54z" fill="#e73635"></path><path d="M126.97 251.39a14.51 14.51 0 1 0 27.42-9.5z" fill="#e73635"></path><path d="M1337.8 282.67a28.32 28.32 0 1 0 39.15-40.93z" fill="#e73635"></path><path d="M614.56 491.69L666.21 491.69L666.21 542.96L614.56 542.96z" fill="#e73635"></path><path d="M1181.42 75.21a3.24 3.24 0 1 0 6.32-1.44z" fill="#037b0b"></path><path d="M953 111.78 a47.18 47.18 0 1 0 94.36 0 a47.18 47.18 0 1 0 -94.36 0z" fill="#e73635"></path><path d="M1141.51 68.48L1159.64 68.48L1159.64 86.61L1141.51 86.61z" stroke="#037b0b"></path><path d="M1367.72 196.85 a47.75 47.75 0 1 0 95.5 0 a47.75 47.75 0 1 0 -95.5 0z" stroke="#e73635"></path><path d="M1411.44 341.15a52.75 52.75 0 1 0-82.3 66z" stroke="#037b0b"></path><path d="M955.01 500.73 a9.23 9.23 0 1 0 18.46 0 a9.23 9.23 0 1 0 -18.46 0z" fill="#037b0b"></path><path d="M487.56 372.85L491.18 372.85L491.18 376.47L487.56 376.47z" fill="#e73635"></path><path d="M566.61 43.19 a51.73 51.73 0 1 0 103.46 0 a51.73 51.73 0 1 0 -103.46 0z" stroke="#d3b714"></path><path d="M64.66 185.8a41.45 41.45 0 1 0 44.27-70.08z" fill="#e73635"></path></g><defs><mask id="SvgjsMask2460"><rect width="1440" height="560" fill="#ffffff"></rect></mask><linearGradient x1="15.28%" y1="-39.29%" x2="84.72%" y2="139.29%" gradientUnits="userSpaceOnUse" id="SvgjsLinearGradient2461"><stop stop-color="rgba(53, 106, 161, 1)" offset="0"></stop><stop stop-color="rgba(0, 69, 158, 0)" offset="1"></stop></linearGradient></defs></svg>