<svg xmlns="http://www.w3.org/2000/svg" version="1.1" xmlns:xlink="http://www.w3.org/1999/xlink" xmlns:svgjs="http://svgjs.dev/svgjs" width="1440" height="560" preserveAspectRatio="none" viewBox="0 0 1440 560"><g mask="url(&quot;#SvgjsMask2784&quot;)" fill="none"><rect width="1440" height="560" x="0" y="0" fill="url(&quot;#SvgjsLinearGradient2785&quot;)"></rect><path d="M0 0L284.31 0L0 105.04z" fill="rgba(255, 255, 255, .1)"></path><path d="M0 105.04L284.31 0L757.44 0L0 312.12z" fill="rgba(255, 255, 255, .075)"></path><path d="M0 312.12L757.44 0L1171.8500000000001 0L0 409.74z" fill="rgba(255, 255, 255, .05)"></path><path d="M0 409.74L1171.8500000000001 0L1258.42 0L0 485.33000000000004z" fill="rgba(255, 255, 255, .025)"></path><path d="M1440 560L854.65 560L1440 383.61z" fill="rgba(0, 0, 0, .1)"></path><path d="M1440 383.61L854.65 560L502.76 560L1440 321.93z" fill="rgba(0, 0, 0, .075)"></path><path d="M1440 321.93L502.76 560L194.63 560L1440 179.72z" fill="rgba(0, 0, 0, .05)"></path><path d="M1440 179.72000000000003L194.6300000000001 560L178.09000000000012 560L1440 133.59000000000003z" fill="rgba(0, 0, 0, .025)"></path></g><defs><mask id="SvgjsMask2784"><rect width="1440" height="560" fill="#ffffff"></rect></mask><linearGradient x1="84.72%" y1="139.29%" x2="15.28%" y2="-39.29%" gradientUnits="userSpaceOnUse" id="SvgjsLinearGradient2785"><stop stop-color="rgba(14, 42, 71, 1)" offset="0"></stop><stop stop-color="rgba(150, 195, 255, 1)" offset="0.88"></stop></linearGradient></defs></svg>