<svg xmlns="http://www.w3.org/2000/svg" version="1.1" xmlns:xlink="http://www.w3.org/1999/xlink" xmlns:svgjs="http://svgjs.dev/svgjs" width="1440" height="560" preserveAspectRatio="none" viewBox="0 0 1440 560"><g mask="url(&quot;#SvgjsMask13751&quot;)" fill="none"><rect width="1440" height="560" x="0" y="0" fill="url(&quot;#SvgjsLinearGradient13752&quot;)"></rect><rect width="95.03999999999999" height="95.03999999999999" clip-path="url(&quot;#SvgjsClipPath13753&quot;)" x="852.35" y="498.81" fill="url(&quot;#SvgjsPattern13754&quot;)" transform="rotate(186.8, 899.87, 546.33)"></rect><path d="M277.44 450.9a5.6 5.6 0 1 0 8.04 7.8 5.6 5.6 0 1 0-8.04-7.8zM288.92 462.04a5.6 5.6 0 1 0 8.04 7.8 5.6 5.6 0 1 0-8.04-7.8zM300.4 473.19a5.6 5.6 0 1 0 8.03 7.8 5.6 5.6 0 1 0-8.03-7.8zM311.88 484.34a5.6 5.6 0 1 0 8.03 7.8 5.6 5.6 0 1 0-8.03-7.8zM243.34 440.08a5.6 5.6 0 1 0 8.03 7.8 5.6 5.6 0 1 0-8.03-7.8zM254.82 451.23a5.6 5.6 0 1 0 8.03 7.8 5.6 5.6 0 1 0-8.03-7.8zM266.3 462.37a5.6 5.6 0 1 0 8.03 7.81 5.6 5.6 0 1 0-8.03-7.81zM277.77 473.52a5.6 5.6 0 1 0 8.04 7.8 5.6 5.6 0 1 0-8.04-7.8zM209.24 429.27a5.6 5.6 0 1 0 8.03 7.8 5.6 5.6 0 1 0-8.03-7.8zM220.71 440.41a5.6 5.6 0 1 0 8.04 7.8 5.6 5.6 0 1 0-8.04-7.8zM232.19 451.56a5.6 5.6 0 1 0 8.04 7.8 5.6 5.6 0 1 0-8.04-7.8zM243.67 462.71a5.6 5.6 0 1 0 8.04 7.8 5.6 5.6 0 1 0-8.04-7.8z" fill="#037b0b"></path><circle r="69.66041212086716" cx="242.06" cy="352.85" stroke="#037b0b" stroke-width="2.47" stroke-dasharray="2, 2"></circle><path d="M783.84 81.79L789.91 70.51 802.24 73.96 808.32 62.69 820.65 66.14 826.72 54.86 839.06 58.31M786.97 89.15L793.04 77.87 805.37 81.32 811.45 70.05 823.78 73.5 829.85 62.23 842.19 65.68M790.1 96.51L796.17 85.24 808.5 88.69 814.58 77.41 826.91 80.86 832.98 69.59 845.32 73.04" stroke="#d3b714" stroke-width="1" stroke-dasharray="4, 4"></path><rect width="260.4" height="260.4" clip-path="url(&quot;#SvgjsClipPath13755&quot;)" x="920.71" y="-69.07" fill="url(&quot;#SvgjsPattern13756&quot;)" transform="rotate(337.74, 1050.91, 61.13)"></rect><rect width="271.04" height="271.04" clip-path="url(&quot;#SvgjsClipPath13757&quot;)" x="492.46" y="249.19" fill="url(&quot;#SvgjsPattern13758&quot;)" transform="rotate(291.47, 627.98, 384.71)"></rect><circle r="84.21248982289099" cx="116.77" cy="461.93" stroke="#037b0b" stroke-width="2.94"></circle><rect width="225.36" height="225.36" clip-path="url(&quot;#SvgjsClipPath13759&quot;)" x="153.82" y="-42.62" fill="url(&quot;#SvgjsPattern13760&quot;)" transform="rotate(24.73, 266.5, 70.06)"></rect><path d="M1292.79 442.98 L1204.01 438.85L1209.0816083154316 480.2333916845686z" stroke="#d3b714" stroke-width="1.36" stroke-dasharray="3, 2"></path><path d="M1159.03 345.4a5.6 5.6 0 1 0 8.02-7.81 5.6 5.6 0 1 0-8.02 7.81zM1170.49 334.24a5.6 5.6 0 1 0 8.03-7.81 5.6 5.6 0 1 0-8.03 7.81zM1181.96 323.08a5.6 5.6 0 1 0 8.03-7.81 5.6 5.6 0 1 0-8.03 7.81zM1193.43 311.92a5.6 5.6 0 1 0 8.02-7.81 5.6 5.6 0 1 0-8.02 7.81z" fill="#037b0b"></path><rect width="267.36" height="267.36" clip-path="url(&quot;#SvgjsClipPath13761&quot;)" x="254.37" y="276.24" fill="url(&quot;#SvgjsPattern13762&quot;)" transform="rotate(302.8, 388.05, 409.92)"></rect><rect width="311.04" height="311.04" clip-path="url(&quot;#SvgjsClipPath13763&quot;)" x="658.35" y="402.28" fill="url(&quot;#SvgjsPattern13764&quot;)" transform="rotate(351.57, 813.87, 557.8)"></rect></g><defs><mask id="SvgjsMask13751"><rect width="1440" height="560" fill="#ffffff"></rect></mask><linearGradient x1="15.28%" y1="-39.29%" x2="84.72%" y2="139.29%" gradientUnits="userSpaceOnUse" id="SvgjsLinearGradient13752"><stop stop-color="rgba(86, 131, 179, 1)" offset="0"></stop><stop stop-color="rgba(219, 235, 255, 1)" offset="1"></stop></linearGradient><pattern x="0" y="0" width="7.92" height="7.92" patternUnits="userSpaceOnUse" id="SvgjsPattern13754"><path d="M0 7.92L3.96 0L7.92 7.92" stroke="#e73635" fill="none"></path></pattern><clipPath id="SvgjsClipPath13753"><circle r="23.759999999999998" cx="899.87" cy="546.33"></circle></clipPath><pattern x="0" y="0" width="8.68" height="8.68" patternUnits="userSpaceOnUse" id="SvgjsPattern13756"><path d="M0 8.68L4.34 0L8.68 8.68" stroke="#d3b714" fill="none"></path></pattern><clipPath id="SvgjsClipPath13755"><circle r="65.1" cx="1050.91" cy="61.13"></circle></clipPath><pattern x="0" y="0" width="9.68" height="9.68" patternUnits="userSpaceOnUse" id="SvgjsPattern13758"><path d="M4.84 1L4.84 8.68M1 4.84L8.68 4.84" stroke="#d3b714" fill="none" stroke-width="1.27"></path></pattern><clipPath id="SvgjsClipPath13757"><circle r="67.76" cx="627.98" cy="384.71"></circle></clipPath><pattern x="0" y="0" width="225.36" height="12.52" patternUnits="userSpaceOnUse" id="SvgjsPattern13760"><rect width="225.36" height="6.26" x="0" y="0" fill="#e73635"></rect><rect width="225.36" height="6.26" x="0" y="6.26" fill="rgba(0, 0, 0, 0)"></rect></pattern><clipPath id="SvgjsClipPath13759"><circle r="56.34" cx="266.5" cy="70.06"></circle></clipPath><pattern x="0" y="0" width="11.14" height="11.14" patternUnits="userSpaceOnUse" id="SvgjsPattern13762"><path d="M5.57 1L5.57 10.14M1 5.57L10.14 5.57" stroke="#e73635" fill="none" stroke-width="1.67"></path></pattern><clipPath id="SvgjsClipPath13761"><circle r="66.84" cx="388.05" cy="409.92"></circle></clipPath><pattern x="0" y="0" width="9.72" height="9.72" patternUnits="userSpaceOnUse" id="SvgjsPattern13764"><path d="M0 9.72L4.86 0L9.72 9.72" stroke="#d3b714" fill="none"></path></pattern><clipPath id="SvgjsClipPath13763"><circle r="77.76" cx="813.87" cy="557.8"></circle></clipPath></defs></svg>